<svg width="65" height="16" viewBox="0 0 65 16" fill="none" xmlns="http://www.w3.org/2000/svg">
<path d="M4.23242 8.31836C4.23242 8.41992 4.21289 8.51562 4.17383 8.60547C4.13477 8.69531 4.07812 8.77734 4.00391 8.85156C3.88281 8.97266 3.71484 9.06836 3.5 9.13867C3.28516 9.20508 3.0332 9.23828 2.74414 9.23828C2.56055 9.23828 2.375 9.21875 2.1875 9.17969C2 9.14062 1.83008 9.07422 1.67773 8.98047C1.52148 8.88672 1.39062 8.76367 1.28516 8.61133C1.18359 8.45898 1.125 8.27148 1.10938 8.04883H0.0253906C0.0253906 8.31836 0.0859375 8.57812 0.207031 8.82812C0.332031 9.07812 0.511719 9.29688 0.746094 9.48438C0.976562 9.67578 1.25977 9.83008 1.5957 9.94727C1.93164 10.0605 2.31445 10.1172 2.74414 10.1172C3.11914 10.1172 3.46484 10.0723 3.78125 9.98242C4.09766 9.89258 4.36914 9.76562 4.5957 9.60156C4.82227 9.4375 4.99805 9.24023 5.12305 9.00977C5.25195 8.7793 5.31641 8.52344 5.31641 8.24219C5.31641 7.98047 5.25977 7.75 5.14648 7.55078C5.03711 7.35156 4.87695 7.17578 4.66602 7.02344C4.45508 6.875 4.19531 6.74805 3.88672 6.64258C3.57812 6.5332 3.22852 6.4375 2.83789 6.35547C2.54102 6.29688 2.29492 6.23633 2.09961 6.17383C1.9082 6.11133 1.75586 6.04102 1.64258 5.96289C1.52539 5.88477 1.44336 5.79688 1.39648 5.69922C1.34961 5.60156 1.32617 5.49023 1.32617 5.36523C1.32617 5.24414 1.35547 5.12695 1.41406 5.01367C1.47266 4.90039 1.56055 4.80078 1.67773 4.71484C1.79102 4.62891 1.93359 4.56055 2.10547 4.50977C2.28125 4.45898 2.48438 4.43359 2.71484 4.43359C2.9375 4.43359 3.13672 4.46484 3.3125 4.52734C3.49219 4.58984 3.64453 4.67188 3.76953 4.77344C3.89453 4.875 3.99219 4.99219 4.0625 5.125C4.13281 5.25391 4.16797 5.38672 4.16797 5.52344H5.25195C5.25195 5.24609 5.19141 4.98828 5.07031 4.75C4.95312 4.50781 4.78516 4.29688 4.56641 4.11719C4.34766 3.9375 4.08203 3.79688 3.76953 3.69531C3.45703 3.59375 3.10547 3.54297 2.71484 3.54297C2.35156 3.54297 2.01758 3.5918 1.71289 3.68945C1.41211 3.78711 1.15234 3.91992 0.933594 4.08789C0.714844 4.25586 0.544922 4.45312 0.423828 4.67969C0.302734 4.90234 0.242188 5.14258 0.242188 5.40039C0.242188 5.66211 0.300781 5.89258 0.417969 6.0918C0.535156 6.28711 0.701172 6.45703 0.916016 6.60156C1.12695 6.75 1.38086 6.87695 1.67773 6.98242C1.97852 7.08789 2.31055 7.17773 2.67383 7.25195C2.9707 7.31055 3.21875 7.37695 3.41797 7.45117C3.61719 7.52148 3.77734 7.59961 3.89844 7.68555C4.01953 7.77148 4.10547 7.86719 4.15625 7.97266C4.20703 8.07422 4.23242 8.18945 4.23242 8.31836Z" fill="white"/>
<path d="M8.31055 4.60352V1H7.22656V10H8.31055V5.39453C8.38867 5.26953 8.47656 5.15625 8.57422 5.05469C8.67578 4.94922 8.78516 4.85742 8.90234 4.7793C9.05078 4.67773 9.21289 4.59961 9.38867 4.54492C9.56445 4.49023 9.75 4.46289 9.94531 4.46289C10.1836 4.45898 10.3945 4.49219 10.5781 4.5625C10.7617 4.62891 10.9141 4.73047 11.0352 4.86719C11.1484 4.99219 11.2344 5.15039 11.293 5.3418C11.3516 5.5293 11.3809 5.74805 11.3809 5.99805V10H12.4648V6.00977C12.4648 5.58398 12.4121 5.2168 12.3066 4.9082C12.2051 4.5957 12.0586 4.33789 11.8672 4.13477C11.6758 3.93164 11.4434 3.7832 11.1699 3.68945C10.9004 3.5918 10.5996 3.54297 10.2676 3.54297C10.0137 3.54688 9.77344 3.58398 9.54688 3.6543C9.32422 3.72461 9.11914 3.82812 8.93164 3.96484C8.81445 4.04688 8.70312 4.14258 8.59766 4.25195C8.49219 4.35742 8.39648 4.47461 8.31055 4.60352Z" fill="white"/>
<path d="M14.1289 6.77148V6.90039C14.1289 7.35742 14.1953 7.78125 14.3281 8.17188C14.4609 8.5625 14.6523 8.90234 14.9023 9.19141C15.1484 9.48047 15.4492 9.70703 15.8047 9.87109C16.1641 10.0352 16.5684 10.1172 17.0176 10.1172C17.4629 10.1172 17.8633 10.0352 18.2188 9.87109C18.5742 9.70703 18.877 9.48047 19.127 9.19141C19.373 8.90234 19.5625 8.5625 19.6953 8.17188C19.8281 7.78125 19.8945 7.35742 19.8945 6.90039V6.77148C19.8945 6.31445 19.8281 5.89062 19.6953 5.5C19.5625 5.10547 19.373 4.76367 19.127 4.47461C18.877 4.18555 18.5723 3.95898 18.2129 3.79492C17.8574 3.62695 17.4551 3.54297 17.0059 3.54297C16.5605 3.54297 16.1602 3.62695 15.8047 3.79492C15.4492 3.95898 15.1484 4.18555 14.9023 4.47461C14.6523 4.76367 14.4609 5.10547 14.3281 5.5C14.1953 5.89062 14.1289 6.31445 14.1289 6.77148ZM15.2129 6.90039V6.77148C15.2129 6.46289 15.25 6.16797 15.3242 5.88672C15.3984 5.60156 15.5117 5.35156 15.6641 5.13672C15.8125 4.92188 15.998 4.75195 16.2207 4.62695C16.4434 4.49805 16.7051 4.43359 17.0059 4.43359C17.3066 4.43359 17.5684 4.49805 17.791 4.62695C18.0176 4.75195 18.207 4.92188 18.3594 5.13672C18.5078 5.35156 18.6191 5.60156 18.6934 5.88672C18.7715 6.16797 18.8105 6.46289 18.8105 6.77148V6.90039C18.8105 7.21289 18.7734 7.51172 18.6992 7.79688C18.625 8.07812 18.5137 8.32617 18.3652 8.54102C18.2129 8.75586 18.0234 8.92578 17.7969 9.05078C17.5742 9.17578 17.3145 9.23828 17.0176 9.23828C16.7168 9.23828 16.4531 9.17578 16.2266 9.05078C16 8.92578 15.8125 8.75586 15.6641 8.54102C15.5117 8.32617 15.3984 8.07812 15.3242 7.79688C15.25 7.51172 15.2129 7.21289 15.2129 6.90039Z" fill="white"/>
<path d="M24.4414 10.1172C25.0586 10.1172 25.5762 9.99414 25.9941 9.74805C26.416 9.49805 26.7324 9.21289 26.9434 8.89258L26.2812 8.37695C26.082 8.63477 25.832 8.8418 25.5312 8.99805C25.2305 9.1543 24.8867 9.23242 24.5 9.23242C24.207 9.23242 23.9395 9.17773 23.6973 9.06836C23.4551 8.95898 23.248 8.80859 23.0762 8.61719C22.9082 8.4375 22.7754 8.23047 22.6777 7.99609C22.584 7.76172 22.5234 7.49023 22.4961 7.18164V7.14062H27.0254V6.6543C27.0254 6.21289 26.9688 5.80273 26.8555 5.42383C26.7461 5.04492 26.5781 4.71484 26.3516 4.43359C26.125 4.15625 25.8398 3.93945 25.4961 3.7832C25.1562 3.62305 24.7578 3.54297 24.3008 3.54297C23.9375 3.54297 23.582 3.61719 23.2344 3.76562C22.8906 3.91406 22.584 4.12695 22.3145 4.4043C22.041 4.68555 21.8223 5.0293 21.6582 5.43555C21.4941 5.83789 21.4121 6.29492 21.4121 6.80664V7.05273C21.4121 7.49414 21.4863 7.90234 21.6348 8.27734C21.7832 8.65234 21.9902 8.97656 22.2559 9.25C22.5215 9.52344 22.8398 9.73633 23.2109 9.88867C23.5859 10.041 23.9961 10.1172 24.4414 10.1172ZM24.3008 4.43359C24.5781 4.43359 24.8164 4.48438 25.0156 4.58594C25.2188 4.6875 25.3867 4.82031 25.5195 4.98438C25.6523 5.14844 25.7559 5.34375 25.8301 5.57031C25.9043 5.79297 25.9414 6.00195 25.9414 6.19727V6.25H22.5312C22.5742 5.95703 22.6484 5.69922 22.7539 5.47656C22.8633 5.25 22.9961 5.05859 23.1523 4.90234C23.3086 4.75 23.4844 4.63477 23.6797 4.55664C23.875 4.47461 24.082 4.43359 24.3008 4.43359Z" fill="white"/>
<path d="M33.0605 8.31836C33.0605 8.41992 33.041 8.51562 33.002 8.60547C32.9629 8.69531 32.9062 8.77734 32.832 8.85156C32.7109 8.97266 32.543 9.06836 32.3281 9.13867C32.1133 9.20508 31.8613 9.23828 31.5723 9.23828C31.3887 9.23828 31.2031 9.21875 31.0156 9.17969C30.8281 9.14062 30.6582 9.07422 30.5059 8.98047C30.3496 8.88672 30.2188 8.76367 30.1133 8.61133C30.0117 8.45898 29.9531 8.27148 29.9375 8.04883H28.8535C28.8535 8.31836 28.9141 8.57812 29.0352 8.82812C29.1602 9.07812 29.3398 9.29688 29.5742 9.48438C29.8047 9.67578 30.0879 9.83008 30.4238 9.94727C30.7598 10.0605 31.1426 10.1172 31.5723 10.1172C31.9473 10.1172 32.293 10.0723 32.6094 9.98242C32.9258 9.89258 33.1973 9.76562 33.4238 9.60156C33.6504 9.4375 33.8262 9.24023 33.9512 9.00977C34.0801 8.7793 34.1445 8.52344 34.1445 8.24219C34.1445 7.98047 34.0879 7.75 33.9746 7.55078C33.8652 7.35156 33.7051 7.17578 33.4941 7.02344C33.2832 6.875 33.0234 6.74805 32.7148 6.64258C32.4062 6.5332 32.0566 6.4375 31.666 6.35547C31.3691 6.29688 31.123 6.23633 30.9277 6.17383C30.7363 6.11133 30.584 6.04102 30.4707 5.96289C30.3535 5.88477 30.2715 5.79688 30.2246 5.69922C30.1777 5.60156 30.1543 5.49023 30.1543 5.36523C30.1543 5.24414 30.1836 5.12695 30.2422 5.01367C30.3008 4.90039 30.3887 4.80078 30.5059 4.71484C30.6191 4.62891 30.7617 4.56055 30.9336 4.50977C31.1094 4.45898 31.3125 4.43359 31.543 4.43359C31.7656 4.43359 31.9648 4.46484 32.1406 4.52734C32.3203 4.58984 32.4727 4.67188 32.5977 4.77344C32.7227 4.875 32.8203 4.99219 32.8906 5.125C32.9609 5.25391 32.9961 5.38672 32.9961 5.52344H34.0801C34.0801 5.24609 34.0195 4.98828 33.8984 4.75C33.7812 4.50781 33.6133 4.29688 33.3945 4.11719C33.1758 3.9375 32.9102 3.79688 32.5977 3.69531C32.2852 3.59375 31.9336 3.54297 31.543 3.54297C31.1797 3.54297 30.8457 3.5918 30.541 3.68945C30.2402 3.78711 29.9805 3.91992 29.7617 4.08789C29.543 4.25586 29.373 4.45312 29.252 4.67969C29.1309 4.90234 29.0703 5.14258 29.0703 5.40039C29.0703 5.66211 29.1289 5.89258 29.2461 6.0918C29.3633 6.28711 29.5293 6.45703 29.7441 6.60156C29.9551 6.75 30.209 6.87695 30.5059 6.98242C30.8066 7.08789 31.1387 7.17773 31.502 7.25195C31.7988 7.31055 32.0469 7.37695 32.2461 7.45117C32.4453 7.52148 32.6055 7.59961 32.7266 7.68555C32.8477 7.77148 32.9336 7.86719 32.9844 7.97266C33.0352 8.07422 33.0605 8.18945 33.0605 8.31836Z" fill="white"/>
<path d="M37.9102 10H38.1973L39.4277 5.23633L39.6504 4.22852L39.8555 5.23633L41.1035 10H41.3906L42.8496 3.66016H42.5156L41.4844 8.16602L41.2324 9.41406L40.9277 8.16602L39.7969 3.66016H39.5039L38.373 8.16602L38.0625 9.41406L37.8164 8.16602L36.7852 3.66016H36.4512L37.9102 10Z" fill="white"/>
<path d="M47.0625 10.1172C47.5 10.1172 47.9062 10.0352 48.2812 9.87109C48.6602 9.70312 48.9844 9.44336 49.2539 9.0918L49.0254 8.93359C48.7715 9.23828 48.4785 9.46094 48.1465 9.60156C47.8184 9.74219 47.457 9.81055 47.0625 9.80664C46.6758 9.80273 46.3242 9.72266 46.0078 9.56641C45.6953 9.40625 45.4277 9.19336 45.2051 8.92773C44.9785 8.66602 44.8027 8.36523 44.6777 8.02539C44.5527 7.68164 44.4883 7.32812 44.4844 6.96484V6.61914H49.4473V6.25C49.4434 5.88672 49.3828 5.54102 49.2656 5.21289C49.1484 4.88477 48.9824 4.5957 48.7676 4.3457C48.5488 4.09961 48.2852 3.9043 47.9766 3.75977C47.668 3.61523 47.3223 3.54297 46.9395 3.54297C46.5098 3.54297 46.125 3.63477 45.7852 3.81836C45.4453 3.99805 45.1562 4.23633 44.918 4.5332C44.6797 4.83008 44.4961 5.16797 44.3672 5.54688C44.2383 5.92578 44.1719 6.3125 44.168 6.70703V6.96484C44.1719 7.375 44.2441 7.76953 44.3848 8.14844C44.5254 8.52734 44.7227 8.86328 44.9766 9.15625C45.2266 9.44922 45.5273 9.68359 45.8789 9.85938C46.2344 10.0312 46.6289 10.1172 47.0625 10.1172ZM46.9395 3.85938C47.2637 3.85938 47.5605 3.92383 47.8301 4.05273C48.0996 4.18164 48.3301 4.35547 48.5215 4.57422C48.7129 4.79297 48.8613 5.04492 48.9668 5.33008C49.0762 5.61523 49.1309 5.91406 49.1309 6.22656V6.30273H44.5137C44.5527 5.98633 44.6348 5.68164 44.7598 5.38867C44.8887 5.0918 45.0566 4.83008 45.2637 4.60352C45.4668 4.37695 45.709 4.19727 45.9902 4.06445C46.2715 3.92773 46.5879 3.85938 46.9395 3.85938Z" fill="white"/>
<path d="M56.209 10H56.5781L56.5723 9.94727C56.5332 9.73633 56.4961 9.5332 56.4609 9.33789C56.4258 9.14258 56.4062 8.9375 56.4023 8.72266V5.54688C56.3945 5.21484 56.3281 4.92383 56.2031 4.67383C56.082 4.41992 55.916 4.20898 55.7051 4.04102C55.4941 3.87695 55.248 3.75391 54.9668 3.67188C54.6895 3.58594 54.3945 3.54297 54.082 3.54297C53.8047 3.54297 53.5254 3.58203 53.2441 3.66016C52.9668 3.73828 52.7148 3.85352 52.4883 4.00586C52.2578 4.16211 52.0664 4.35547 51.9141 4.58594C51.7656 4.81641 51.6836 5.08594 51.668 5.39453L51.9844 5.40625C51.9961 5.14062 52.0684 4.91211 52.2012 4.7207C52.334 4.52539 52.5 4.36328 52.6992 4.23438C52.8984 4.10938 53.1191 4.01562 53.3613 3.95312C53.6074 3.89062 53.8477 3.85938 54.082 3.85938C54.3477 3.85938 54.5996 3.89453 54.8379 3.96484C55.0801 4.03125 55.293 4.13281 55.4766 4.26953C55.6562 4.40625 55.8008 4.58008 55.9102 4.79102C56.0195 5.00195 56.0781 5.25 56.0859 5.53516V6.46094H54.5215C54.1699 6.46484 53.8145 6.49609 53.4551 6.55469C53.0957 6.61328 52.7715 6.71484 52.4824 6.85938C52.1895 7.00781 51.9512 7.20703 51.7676 7.45703C51.584 7.70312 51.4922 8.01562 51.4922 8.39453C51.4922 8.67188 51.5488 8.91797 51.6621 9.13281C51.7754 9.34766 51.9258 9.52734 52.1133 9.67188C52.3008 9.81641 52.5156 9.92578 52.7578 10C53 10.0781 53.248 10.1172 53.502 10.1172C53.7637 10.1172 54.0195 10.0898 54.2695 10.0352C54.5195 9.98047 54.7559 9.89844 54.9785 9.78906C55.2012 9.68359 55.4062 9.54883 55.5938 9.38477C55.7852 9.2207 55.9492 9.03125 56.0859 8.81641C56.0898 9.01562 56.0996 9.21289 56.1152 9.4082C56.1309 9.60352 56.1621 9.80078 56.209 10ZM53.502 9.80664C53.3027 9.80664 53.1016 9.77734 52.8984 9.71875C52.6992 9.65625 52.5195 9.56641 52.3594 9.44922C52.1953 9.33203 52.0625 9.1875 51.9609 9.01562C51.8594 8.83984 51.8086 8.64062 51.8086 8.41797C51.8047 8.10938 51.877 7.85547 52.0254 7.65625C52.1738 7.45312 52.3691 7.28711 52.6113 7.1582C52.8848 7.00977 53.1953 6.91211 53.543 6.86523C53.8906 6.81836 54.2227 6.79102 54.5391 6.7832H56.0859V8.2832C55.9688 8.5332 55.8203 8.75391 55.6406 8.94531C55.4609 9.13672 55.2598 9.29688 55.0371 9.42578C54.8105 9.55469 54.5664 9.65234 54.3047 9.71875C54.0469 9.78125 53.7793 9.81055 53.502 9.80664Z" fill="white"/>
<path d="M63.0996 3.54297C62.4121 3.53906 61.8242 3.67969 61.3359 3.96484C60.8477 4.24609 60.4863 4.64648 60.252 5.16602V4.76172L60.2168 3.66016H59.9062V10H60.2695L60.252 5.95117C60.3379 5.56445 60.4727 5.23828 60.6562 4.97266C60.8438 4.70312 61.0645 4.48438 61.3184 4.31641C61.5684 4.15234 61.8457 4.03516 62.1504 3.96484C62.459 3.89062 62.7754 3.85352 63.0996 3.85352C63.2363 3.85352 63.373 3.86328 63.5098 3.88281C63.6504 3.89844 63.7773 3.91602 63.8906 3.93555L63.9258 3.63672C63.7969 3.60938 63.6621 3.58789 63.5215 3.57227C63.3809 3.55273 63.2402 3.54297 63.0996 3.54297Z" fill="white"/>
<path d="M63.2305 2.0625C63.7793 2.0625 64.2109 1.62891 64.2109 1.08203C64.2109 0.533203 63.7793 0.0996094 63.2305 0.0996094C62.6836 0.0996094 62.25 0.533203 62.25 1.08203C62.25 1.62891 62.6836 2.0625 63.2305 2.0625ZM63.2305 1.97656C62.7305 1.97656 62.3359 1.58203 62.3359 1.08203C62.3359 0.580078 62.7305 0.1875 63.2305 0.1875C63.7324 0.1875 64.125 0.580078 64.125 1.08203C64.125 1.58203 63.7324 1.97656 63.2305 1.97656ZM62.9688 1.59375V1.16992H63.2637L63.5664 1.59375H63.6719L63.3633 1.15625C63.4961 1.13867 63.6211 1.02734 63.6211 0.849609C63.6211 0.640625 63.4707 0.525391 63.2734 0.525391H62.8828V1.59375H62.9688ZM62.9688 0.605469H63.2461C63.4316 0.605469 63.5332 0.707031 63.5332 0.845703C63.5332 0.988281 63.4395 1.08789 63.248 1.08789H62.9688V0.605469Z" fill="white"/>
<path d="M0.369141 12.334V15H1.23633C2.01367 15 2.41016 14.5371 2.41016 13.666C2.41016 12.7949 2.01367 12.334 1.23633 12.334H0.369141ZM0.728516 12.6484H1.21094C1.76562 12.6484 2.03711 12.9883 2.03711 13.668C2.03711 14.3477 1.76758 14.6836 1.21094 14.6836H0.728516V12.6484Z" fill="white"/>
<path d="M3.36133 15V12.334H3.00195V15H3.36133Z" fill="white"/>
<path d="M3.9043 14.3242C3.94141 14.7539 4.30469 15.0547 4.86914 15.0547C5.48438 15.0547 5.86914 14.7383 5.86914 14.2539C5.86914 13.8672 5.64062 13.6484 5.17383 13.5254L4.71875 13.4062C4.47461 13.3457 4.34375 13.2148 4.34375 13.0273C4.34375 12.7656 4.56836 12.584 4.9043 12.584C5.21484 12.584 5.42578 12.7344 5.47461 12.9707H5.83594C5.79492 12.5625 5.4375 12.2715 4.91016 12.2715C4.36719 12.2715 3.97852 12.5918 3.97852 13.043C3.97852 13.3984 4.20898 13.6445 4.60938 13.7461L5.07227 13.8672C5.37109 13.9434 5.50586 14.0684 5.50586 14.2812C5.50586 14.5625 5.27734 14.7422 4.90625 14.7422C4.55859 14.7422 4.31836 14.5781 4.26758 14.3242H3.9043Z" fill="white"/>
<path d="M7.36133 15V12.6523H8.16406V12.334H6.19727V12.6523H7.00195V15H7.36133Z" fill="white"/>
<path d="M9.59961 12.334H8.62695V15H8.98438V13.9453H9.61328L10.1035 15H10.5117L9.96875 13.877C10.2656 13.7695 10.4648 13.498 10.4648 13.1328C10.4648 12.6484 10.1309 12.334 9.59961 12.334ZM8.98438 13.6367V12.6465H9.55273C9.89258 12.6465 10.0938 12.8301 10.0938 13.1523C10.0938 13.4707 9.89648 13.6367 9.53906 13.6367H8.98438Z" fill="white"/>
<path d="M11.4707 15V12.334H11.1113V15H11.4707Z" fill="white"/>
<path d="M12.209 15H13.1855C13.7559 15 14.1152 14.7207 14.1152 14.252C14.1152 13.877 13.8887 13.6406 13.5352 13.5938V13.5781C13.8066 13.4961 13.9648 13.293 13.9648 12.9902C13.9648 12.5859 13.6758 12.334 13.2207 12.334H12.209V15ZM12.5664 12.6426H13.1582C13.4395 12.6426 13.6035 12.793 13.6035 13.0508C13.6035 13.3418 13.4082 13.4785 12.9688 13.4785H12.5664V12.6426ZM12.5664 13.7793H13.1953C13.5469 13.7793 13.748 13.9531 13.748 14.252C13.748 14.5605 13.5391 14.6914 13.0234 14.6914H12.5664V13.7793Z" fill="white"/>
<path d="M15.6953 14.7344C15.293 14.7344 15.0371 14.4824 15.0371 14.0684V12.334H14.6777V14.0801C14.6777 14.6641 15.082 15.0547 15.6953 15.0547C16.3066 15.0547 16.7129 14.6641 16.7129 14.0801V12.334H16.3516V14.0684C16.3516 14.4805 16.0957 14.7344 15.6953 14.7344Z" fill="white"/>
<path d="M18.3066 15V12.6523H19.1094V12.334H17.1426V12.6523H17.9473V15H18.3066Z" fill="white"/>
<path d="M19.9316 15V12.334H19.5723V15H19.9316Z" fill="white"/>
<path d="M22.7129 13.8613V13.4746C22.7129 12.7168 22.293 12.2793 21.6387 12.2793C20.9844 12.2793 20.5645 12.7168 20.5645 13.4746V13.8613C20.5645 14.6152 20.9844 15.0547 21.6387 15.0547C22.293 15.0547 22.7129 14.6152 22.7129 13.8613ZM22.3516 13.4727V13.8613C22.3516 14.4512 22.043 14.7363 21.6387 14.7363C21.2324 14.7363 20.9258 14.4512 20.9258 13.8613V13.4727C20.9258 12.8828 21.2324 12.5977 21.6387 12.5977C22.043 12.5977 22.3516 12.8828 22.3516 13.4727Z" fill="white"/>
<path d="M23.6992 15V12.9473H23.7129L25.0352 15H25.375V12.334H25.0215V14.3848H25.0039L23.6855 12.334H23.3457V15H23.6992Z" fill="white"/>
<path d="M27.3555 15V13.0625H27.373L28.1094 14.7656H28.4023L29.1367 13.0625H29.1562V15H29.4824V12.334H29.1309L28.2637 14.377H28.252L27.3828 12.334H27.0293V15H27.3555Z" fill="white"/>
<path d="M32.2754 13.8613V13.4746C32.2754 12.7168 31.8555 12.2793 31.2012 12.2793C30.5469 12.2793 30.127 12.7168 30.127 13.4746V13.8613C30.127 14.6152 30.5469 15.0547 31.2012 15.0547C31.8555 15.0547 32.2754 14.6152 32.2754 13.8613ZM31.9141 13.4727V13.8613C31.9141 14.4512 31.6055 14.7363 31.2012 14.7363C30.7949 14.7363 30.4883 14.4512 30.4883 13.8613V13.4727C30.4883 12.8828 30.7949 12.5977 31.2012 12.5977C31.6055 12.5977 31.9141 12.8828 31.9141 13.4727Z" fill="white"/>
<path d="M33.2617 15V12.9473H33.2754L34.5977 15H34.9375V12.334H34.584V14.3848H34.5664L33.248 12.334H32.9082V15H33.2617Z" fill="white"/>
<path d="M35.6777 12.334V15H36.5449C37.3223 15 37.7188 14.5371 37.7188 13.666C37.7188 12.7949 37.3223 12.334 36.5449 12.334H35.6777ZM36.0371 12.6484H36.5195C37.0742 12.6484 37.3457 12.9883 37.3457 13.668C37.3457 14.3477 37.0762 14.6836 36.5195 14.6836H36.0371V12.6484Z" fill="white"/>
<path d="M38.6699 15V12.334H38.3105V15H38.6699Z" fill="white"/>
<path d="M39.5117 15L39.7734 14.2109H40.7559L41.0176 15H41.3965L40.4551 12.334H40.082L39.1387 15H39.5117ZM40.2715 12.7461L40.6641 13.9238H39.8672L40.2578 12.7461H40.2715Z" fill="white"/>
<path d="M43.4473 14.6797H42.2285V12.334H41.8691V15H43.4473V14.6797Z" fill="white"/>
<path d="M45.5273 14.6836H44.2734V13.7949H45.457V13.4844H44.2734V12.6504H45.5273V12.334H43.916V15H45.5273V14.6836Z" fill="white"/>
</svg>
